<mxfile host="app.diagrams.net" modified="2023-08-27T13:54:32.594Z" agent="Mozilla/5.0 (Macintosh; Intel Mac OS X 10_15_7) AppleWebKit/537.36 (KHTML, like Gecko) Chrome/115.0.0.0 Safari/537.36" etag="yr2sYUILuZUPDBOznhD8" version="21.6.8" type="github">
  <diagram name="Page-1" id="e7e014a7-5840-1c2e-5031-d8a46d1fe8dd">
    <mxGraphModel dx="1242" dy="790" grid="1" gridSize="10" guides="1" tooltips="1" connect="1" arrows="1" fold="1" page="1" pageScale="1" pageWidth="1169" pageHeight="826" background="none" math="0" shadow="0">
      <root>
        <mxCell id="0" />
        <mxCell id="1" parent="0" />
        <mxCell id="2" value="认证服务 " style="swimlane;whiteSpace=wrap" parent="1" vertex="1">
          <mxGeometry x="164.5" y="128" width="280" height="570" as="geometry" />
        </mxCell>
        <mxCell id="5" value="" style="ellipse;shape=startState;fillColor=#000000;strokeColor=#ff0000;" parent="2" vertex="1">
          <mxGeometry x="125" y="40" width="30" height="30" as="geometry" />
        </mxCell>
        <mxCell id="6" value="" style="edgeStyle=elbowEdgeStyle;elbow=horizontal;verticalAlign=bottom;endArrow=open;endSize=8;strokeColor=#FF0000;endFill=1;rounded=0;entryX=0.5;entryY=0;entryDx=0;entryDy=0;" parent="2" source="5" target="15" edge="1">
          <mxGeometry x="100" y="40" as="geometry">
            <mxPoint x="115.5" y="110" as="targetPoint" />
          </mxGeometry>
        </mxCell>
        <mxCell id="12" value="" style="edgeStyle=elbowEdgeStyle;elbow=horizontal;strokeColor=#FF0000;endArrow=open;endFill=1;rounded=0" parent="2" source="10" edge="1">
          <mxGeometry width="100" height="100" relative="1" as="geometry">
            <mxPoint x="160" y="290" as="sourcePoint" />
            <mxPoint x="60" y="135" as="targetPoint" />
            <Array as="points">
              <mxPoint x="30" y="250" />
            </Array>
          </mxGeometry>
        </mxCell>
        <mxCell id="15" value="登录系统" style="" parent="2" vertex="1">
          <mxGeometry x="85" y="132" width="110" height="50" as="geometry" />
        </mxCell>
        <mxCell id="QTWkT1WV58t3KFIZWOCs-42" value="获取访问令牌" style="" vertex="1" parent="2">
          <mxGeometry x="85" y="222" width="110" height="50" as="geometry" />
        </mxCell>
        <mxCell id="QTWkT1WV58t3KFIZWOCs-43" value="创建授权策略 " style="" vertex="1" parent="2">
          <mxGeometry x="85" y="302" width="110" height="50" as="geometry" />
        </mxCell>
        <mxCell id="QTWkT1WV58t3KFIZWOCs-44" value="创建密钥" style="" vertex="1" parent="2">
          <mxGeometry x="85" y="382" width="110" height="50" as="geometry" />
        </mxCell>
        <mxCell id="QTWkT1WV58t3KFIZWOCs-45" value="签发Token" style="" vertex="1" parent="2">
          <mxGeometry x="85" y="472" width="110" height="50" as="geometry" />
        </mxCell>
        <mxCell id="QTWkT1WV58t3KFIZWOCs-53" value="" style="edgeStyle=elbowEdgeStyle;elbow=horizontal;verticalAlign=bottom;endArrow=open;endSize=8;strokeColor=#FF0000;endFill=1;rounded=0;entryX=0.5;entryY=0;entryDx=0;entryDy=0;exitX=0.5;exitY=1;exitDx=0;exitDy=0;" edge="1" parent="2" source="15">
          <mxGeometry x="-64.5" y="-88" as="geometry">
            <mxPoint x="139.5" y="224" as="targetPoint" />
            <mxPoint x="139.5" y="162" as="sourcePoint" />
          </mxGeometry>
        </mxCell>
        <mxCell id="QTWkT1WV58t3KFIZWOCs-54" value="" style="edgeStyle=elbowEdgeStyle;elbow=horizontal;verticalAlign=bottom;endArrow=open;endSize=8;strokeColor=#FF0000;endFill=1;rounded=0;exitX=0.5;exitY=1;exitDx=0;exitDy=0;" edge="1" parent="2">
          <mxGeometry x="-229" y="-216" as="geometry">
            <mxPoint x="139.5" y="302" as="targetPoint" />
            <mxPoint x="140" y="272" as="sourcePoint" />
          </mxGeometry>
        </mxCell>
        <mxCell id="QTWkT1WV58t3KFIZWOCs-55" value="" style="edgeStyle=elbowEdgeStyle;elbow=horizontal;verticalAlign=bottom;endArrow=open;endSize=8;strokeColor=#FF0000;endFill=1;rounded=0;exitX=0.5;exitY=1;exitDx=0;exitDy=0;" edge="1" parent="2">
          <mxGeometry x="-229" y="-216" as="geometry">
            <mxPoint x="139.5" y="382" as="targetPoint" />
            <mxPoint x="140" y="352" as="sourcePoint" />
          </mxGeometry>
        </mxCell>
        <mxCell id="QTWkT1WV58t3KFIZWOCs-56" value="" style="edgeStyle=elbowEdgeStyle;elbow=horizontal;verticalAlign=bottom;endArrow=open;endSize=8;strokeColor=#FF0000;endFill=1;rounded=0;entryX=0.5;entryY=0;entryDx=0;entryDy=0;exitX=0.5;exitY=1;exitDx=0;exitDy=0;" edge="1" parent="2">
          <mxGeometry x="-229" y="-216" as="geometry">
            <mxPoint x="139.5" y="474" as="targetPoint" />
            <mxPoint x="140" y="432" as="sourcePoint" />
          </mxGeometry>
        </mxCell>
        <mxCell id="3" value="授权服务" style="swimlane;whiteSpace=wrap" parent="1" vertex="1">
          <mxGeometry x="444.5" y="128" width="280" height="570" as="geometry" />
        </mxCell>
        <mxCell id="18" value="获取资源" style="" parent="3" vertex="1">
          <mxGeometry x="90" y="342" width="110" height="50" as="geometry" />
        </mxCell>
        <mxCell id="QTWkT1WV58t3KFIZWOCs-41" value="" style="ellipse;html=1;shape=endState;fillColor=#000000;strokeColor=#ff0000;" vertex="1" parent="3">
          <mxGeometry x="130" y="452" width="30" height="30" as="geometry" />
        </mxCell>
        <mxCell id="QTWkT1WV58t3KFIZWOCs-46" value="访问资源授权接口" style="" vertex="1" parent="3">
          <mxGeometry x="90" y="132" width="110" height="50" as="geometry" />
        </mxCell>
        <mxCell id="QTWkT1WV58t3KFIZWOCs-47" value="授权结果" style="rhombus;whiteSpace=wrap;html=1;fontColor=#000000;fillColor=#ffffc0;strokeColor=#ff0000;" vertex="1" parent="3">
          <mxGeometry x="105" y="232" width="80" height="40" as="geometry" />
        </mxCell>
        <mxCell id="QTWkT1WV58t3KFIZWOCs-48" value="no" style="edgeStyle=orthogonalEdgeStyle;html=1;align=left;verticalAlign=bottom;endArrow=open;endSize=8;strokeColor=#ff0000;rounded=0;entryX=1;entryY=0.5;entryDx=0;entryDy=0;" edge="1" source="QTWkT1WV58t3KFIZWOCs-47" parent="3" target="QTWkT1WV58t3KFIZWOCs-46">
          <mxGeometry x="-1" relative="1" as="geometry">
            <mxPoint x="225.5" y="252" as="targetPoint" />
            <Array as="points">
              <mxPoint x="210" y="252" />
              <mxPoint x="210" y="157" />
            </Array>
          </mxGeometry>
        </mxCell>
        <mxCell id="QTWkT1WV58t3KFIZWOCs-49" value="yes" style="edgeStyle=orthogonalEdgeStyle;html=1;align=left;verticalAlign=top;endArrow=open;endSize=8;strokeColor=#ff0000;rounded=0;entryX=0.5;entryY=0;entryDx=0;entryDy=0;" edge="1" source="QTWkT1WV58t3KFIZWOCs-47" parent="3" target="18">
          <mxGeometry x="-1" relative="1" as="geometry">
            <mxPoint x="85.5" y="332" as="targetPoint" />
          </mxGeometry>
        </mxCell>
        <mxCell id="QTWkT1WV58t3KFIZWOCs-50" value="" style="endArrow=open;strokeColor=#FF0000;endFill=1;rounded=0;exitX=0.5;exitY=1;exitDx=0;exitDy=0;entryX=0.5;entryY=0;entryDx=0;entryDy=0;" edge="1" parent="3" source="QTWkT1WV58t3KFIZWOCs-46" target="QTWkT1WV58t3KFIZWOCs-47">
          <mxGeometry relative="1" as="geometry">
            <mxPoint x="79.5" y="219" as="sourcePoint" />
            <mxPoint x="280" y="232" as="targetPoint" />
          </mxGeometry>
        </mxCell>
        <mxCell id="QTWkT1WV58t3KFIZWOCs-51" value="" style="endArrow=open;strokeColor=#FF0000;endFill=1;rounded=0;exitX=0.5;exitY=1;exitDx=0;exitDy=0;" edge="1" parent="3" source="18">
          <mxGeometry relative="1" as="geometry">
            <mxPoint x="144.5" y="412" as="sourcePoint" />
            <mxPoint x="144.5" y="452" as="targetPoint" />
          </mxGeometry>
        </mxCell>
        <mxCell id="20" value="" style="endArrow=open;strokeColor=#FF0000;endFill=1;rounded=0;exitX=1;exitY=0.5;exitDx=0;exitDy=0;entryX=0;entryY=0.5;entryDx=0;entryDy=0;" parent="1" source="QTWkT1WV58t3KFIZWOCs-45" target="QTWkT1WV58t3KFIZWOCs-46" edge="1">
          <mxGeometry relative="1" as="geometry">
            <mxPoint x="334.5" y="478" as="sourcePoint" />
            <Array as="points">
              <mxPoint x="400" y="625" />
              <mxPoint x="400" y="285" />
            </Array>
          </mxGeometry>
        </mxCell>
      </root>
    </mxGraphModel>
  </diagram>
</mxfile>
